<svg xmlns="http://www.w3.org/2000/svg" width="24" height="24" viewBox="0 0 24 24" fill="none">
  <path d="M8 13C8 13 3 18 3 20C3 21.6569 4.34315 23 6 23C7.65685 23 9 21.6569 9 20C9 18 8 13 8 13Z" stroke="#4FC3F7" stroke-width="2" stroke-linecap="round" stroke-linejoin="round" fill="#4FC3F7" fill-opacity="0.3"/>
  <path d="M16 13C16 13 11 18 11 20C11 21.6569 12.3431 23 14 23C15.6569 23 17 21.6569 17 20C17 18 16 13 16 13Z" stroke="#4FC3F7" stroke-width="2" stroke-linecap="round" stroke-linejoin="round" fill="#4FC3F7" fill-opacity="0.3"/>
  <path d="M12 5C12 5 7 10 7 12C7 13.6569 8.34315 15 10 15C11.6569 15 13 13.6569 13 12C13 10 12 5 12 5Z" stroke="#4FC3F7" stroke-width="2" stroke-linecap="round" stroke-linejoin="round" fill="#4FC3F7" fill-opacity="0.3"/>
  <path d="M12 2V3" stroke="#4FC3F7" stroke-width="2" stroke-linecap="round"/>
</svg> 