<svg xmlns="http://www.w3.org/2000/svg" width="24" height="24" viewBox="0 0 24 24" fill="none">
  <path d="M5 8H13C14.6569 8 16 6.65685 16 5C16 3.34315 14.6569 2 13 2C11.3431 2 10 3.34315 10 5" stroke="#29B6F6" stroke-width="2" stroke-linecap="round" stroke-linejoin="round"/>
  <path d="M5 16H17C18.6569 16 20 17.3431 20 19C20 20.6569 18.6569 22 17 22C15.3431 22 14 20.6569 14 19" stroke="#29B6F6" stroke-width="2" stroke-linecap="round" stroke-linejoin="round"/>
  <path d="M3 12H15C16.6569 12 18 10.6569 18 9C18 7.34315 16.6569 6 15 6C13.3431 6 12 7.34315 12 9" stroke="#29B6F6" stroke-width="2" stroke-linecap="round" stroke-linejoin="round"/>
</svg> 